# AST/ASF file generated using VICON BodyLanguage
# -----------------------------------------------
:version 1.10
:name VICON
:units
  mass 1.0
  length 0.45
  angle deg
:documentation
   .ast/.asf automatically generated from VICON data using
   VICON BodyBuilder and BodyLanguage model FoxedUp or BRILLIANT.MOD
:root
   order TX TY TZ RX RY RZ
   axis XYZ
   position 0 0 0  
   orientation 0 0 0 
:bonedata
  begin
     id 1 
     name lhipjoint
     direction 0.573633 -0.743009 0.344793 
     length 2.46257 
     axis 0 0 0  XYZ
  end
  begin
     id 2 
     name lfemur
     direction 0.34202 -0.939693 0  
     length 7.3842  
     axis 0 0 20  XYZ
    dof rx ry rz
    limits (-160.0 20.0)
           (-70.0 70.0)
           (-60.0 70.0)
  end
  begin
     id 3 
     name ltibia
     direction 0.34202 -0.939693 0   
     length 7.50407   
     axis 0 0 20   XYZ
    dof rx
    limits (-10.0 170.0)
  end
  begin
     id 4 
     name lfoot
     direction 0.110749 -0.304281 0.946123   
     length 1.95925   
     axis -90 7.62852e-016 20   XYZ
    dof rx rz
    limits (-45.0 90.0)
           (-70.0 20.0)
  end
  begin
     id 5 
     name ltoes
     direction 1.53554e-011 -4.21843e-011 1   
     length 0.978318   
     axis -90 7.62852e-016 20   XYZ
    dof rx
    limits (-90.0 20.0)
  end
  begin
     id 6 
     name rhipjoint
     direction -0.488109 -0.791693 0.367385   
     length 2.31113  
     axis 0 0 0  XYZ 
  end
  begin
     id 7 
     name rfemur
     direction -0.34202 -0.939693 0   
     length 7.40965   
     axis 0 0 -20   XYZ
    dof rx ry rz
    limits (-160.0 20.0)
           (-70.0 70.0)
           (-70.0 60.0)
  end
  begin
     id 8 
     name rtibia
     direction -0.34202 -0.939693 0   
     length 7.55548   
     axis 0 0 -20   XYZ
    dof rx
    limits (-10.0 170.0)
 end
 begin
     id 9 
     name rfoot
     direction -0.127594 -0.350561 0.927808   
     length 2.07199  
     axis -90 -7.62852e-016 -20   XYZ
    dof rx rz
    limits (-45.0 90.0)
           (-20.0 70.0)
  end
  begin
     id 10 
     name rtoes
     direction -1.53542e-011 -4.21909e-011 1   
     length 1.02667   
     axis -90 -7.62852e-016 -20   XYZ
    dof rx
    limits (-90.0 20.0)
  end
  begin
     id 11 
     name lowerback
     direction -0.0103342 0.997298 -0.0727278   
     length 2.02836   
     axis 0 0 0   XYZ
    dof rx ry rz
    limits (-20.0 45.0)
           (-30.0 30.0)
           (-30.0 30.0)
  end
  begin
     id 12 
     name upperback
     direction 0.0171146 0.999786 -0.011606   
     length 2.03179   
     axis 0 0 0   XYZ
    dof rx ry rz
    limits (-20.0 45.0)
           (-30.0 30.0)
           (-30.0 30.0)
  end
  begin
     id 13 
     name thorax
     direction 0.0216927 0.999513 0.0224343   
     length 2.03882   
     axis 0 0 0   XYZ
    dof rx ry rz
    limits (-20.0 45.0)
           (-30.0 30.0)
           (-30.0 30.0)
  end
  begin
     id 14 
     name lowerneck
     direction 0.000989287 0.993907 0.110221   
     length 1.75428   
     axis 0 0 0   XYZ
    dof rx ry rz
    limits (-20.0 45.0)
           (-30.0 30.0)
           (-30.0 30.0)
  end
  begin
     id 15 
     name upperneck
     direction -0.0172474 0.994813 -0.100253   
     length 1.77058   
     axis 0 0 0   XYZ
    dof rx ry rz
    limits (-20.0 45.0)
           (-30.0 30.0)
           (-30.0 30.0)
  end
  begin
     id 16
     name head
     direction -0.00486455 0.99894 -0.0457663  
     length 1.77427  
     axis 0 0 0   XYZ
    dof rx ry rz
    limits (-20.0 45.0)
           (-30.0 30.0)
           (-30.0 30.0)
  end
  begin
     id 17 
     name lclavicle
     direction 0.927314 0.333734 -0.169441  
     length 3.97584  
     axis 0 0 0   XYZ
    dof ry rz
    limits (-20.0 10.0)
           (0.0 20.0)
  end
  begin
     id 18 
     name lhumerus
     direction 1 -4.48965e-011 -3.25313e-028   
     length 4.76468   
     axis 180 -30 -90   XYZ
    dof rx ry rz
    limits (-60.0 90.0)
           (-90.0 90.0)
           (-90.0 90.0)
  end
  begin
     id 19
     name lradius
     direction 1 -4.48969e-011 -2.8465e-028   
     length 3.52712   
     axis -180 -30 -90   XYZ
    dof rx
    limits (-10.0 170.0)
  end
  begin
     id 20
     name lwrist
     direction 1 -4.4896e-011 -7.78665e-028   
     length 1.76356   
     axis 1.91374e-015 90 90   XYZ
    dof ry
    limits (-180.0 0.0)
 end
  begin
     id 21 
     name lhand
     direction 1 -4.48959e-011 -1.55733e-027   
     length 0.859564   
     axis 9.9371e-016 90 90   XYZ
    dof rx rz
    limits (-90.0 90.0)
           (-45.0 45.0)
  end
  begin
     id 22 
     name lfingers
     direction 1 -4.48965e-011 -3.11466e-027   
     length 0.693002   
     axis 1.98742e-015 90 90   XYZ
    dof rx
    limits (0.0 90.0)
  end
  begin
     id 23
     name lthumb
     direction 0.707107 -6.34948e-011 0.707107   
     length 0.995017   
     axis -90 45 2.85299e-015   XYZ
    dof rx rz
    limits (-45.0 45.0)
           (-45.0 45.0)
  end
  begin
     id 24 
     name rclavicle
     direction -0.899388 0.348209 -0.264294   
     length 3.68366  
     axis 0 0 0   XYZ 
    dof ry rz
    limits (-10.0 20.0)
           (-20.0 0.0)
  end
  begin
     id 25 
     name rhumerus
     direction -1 -4.48965e-011 -3.01536e-027  
     length 4.90577   
     axis 180 30 90   XYZ
    dof rx ry rz
    limits (-90.0 60.0)
           (-90.0 90.0)
           (-90.0 90.0)
  end
  begin
     id 26 
     name rradius
     direction -1 -4.48966e-011 3.93291e-027   
     length 3.42692   
     axis -180 30 90   XYZ
    dof rx
    limits (-10.0 170.0)
  end
  begin
     id 27 
     name rwrist
     direction -1 -4.48969e-011 -7.78665e-028   
     length 1.71346   
     axis 1.91374e-015 -90 -90   XYZ
    dof ry
    limits (-180.0 0.0)
  end
  begin
     id 28
     name rhand
     direction -1 -4.48967e-011 -1.55733e-027   
     length 0.740957   
     axis 9.9371e-016 -90 -90   XYZ
    dof rx rz
    limits (-90.0 90.0)
           (-45.0 45.0)
  end
  begin
     id 29
     name rfingers
     direction -1 -4.48949e-011 -3.11466e-027   
     length 0.597378   
     axis 1.98742e-015 -90 -90   XYZ
    dof rx
    limits (0.0 90.0)
  end
  begin
     id 30
     name rthumb
     direction -0.707107 -6.34931e-011 0.707107   
     length 0.857719   
     axis -90 -45 -2.85299e-015   XYZ
    dof rx rz
    limits (-45.0 45.0)
           (-45.0 45.0)
  end
:hierarchy
  begin
    root lhipjoint rhipjoint lowerback
    lhipjoint lfemur
    lfemur ltibia
    ltibia lfoot
    lfoot ltoes
    rhipjoint rfemur
    rfemur rtibia
    rtibia rfoot
    rfoot rtoes
    lowerback upperback
    upperback thorax
    thorax lowerneck lclavicle rclavicle
    lowerneck upperneck
    upperneck head
    lclavicle lhumerus
    lhumerus lradius
    lradius lwrist
    lwrist lhand lthumb
    lhand lfingers
    rclavicle rhumerus
    rhumerus rradius
    rradius rwrist
    rwrist rhand rthumb
    rhand rfingers
  end

#!OML:ASF E:\I on waltz\AllaLogoMonkeySwing\Project 1\Capture day 1\Session 1\Subject1.ASF
:FULLY-SPECIFIED
:DEGREES
297
root 1.08665 17.7678 0.711544 179.271 19.4361 183.414
lowerback 8.65225 -1.20667 0.872094
upperback 0.385666 -1.361 1.85161
thorax -4.4284 -0.642008 1.59762
lowerneck -11.6675 4.48037 3.7015
upperneck 19.4734 6.17147 -0.973258
head 8.09777 3.29522 -0.263471
rclavicle 8.92046e-015 8.64713e-015
rhumerus -44.8527 -32.2527 -57.0547
rradius 25.2171
rwrist 4.27182
rhand -7.21781 -37.9615
rfingers 7.12502
rthumb 18.6613 -67.0864
lclavicle 8.92046e-015 8.64713e-015
lhumerus -33.3629 21.1413 79.7536
lradius 37.0613
lwrist -1.71677
lhand -9.12689 -13.4198
lfingers 7.12502
lthumb 16.8243 15.8713
rfemur -1.37263 6.68679 24.8528
rtibia 22.1238
rfoot -18.6535 7.27107
rtoes 22.0339
lfemur -9.04246 2.20591 -3.8392
ltibia 46.8278
lfoot -3.1863 1.90006
ltoes -35.0739
298
root 1.09025 17.7647 0.679598 179.123 20.4081 183.378
lowerback 8.88136 -1.29348 0.954237
upperback 0.401577 -1.45731 1.90143
thorax -4.53921 -0.688769 1.62093
lowerneck -11.6114 4.48005 3.8251
upperneck 19.8112 6.20047 -1.0697
head 8.20883 3.31782 -0.307715
rclavicle 4.01794e-014 1.78906e-015
rhumerus -44.9391 -32.2603 -56.306
rradius 25.0052
rwrist 4.11095
rhand -7.46361 -37.9091
rfingers 7.12502
rthumb 18.4249 -67.0566
lclavicle 4.01794e-014 1.78906e-015
lhumerus -33.2915 20.6382 80.2931
lradius 37.7043
lwrist -0.877447
lhand -8.80156 -13.5073
lfingers 7.12502
lthumb 17.1374 15.7569
rfemur -1.12014 7.05475 24.804
rtibia 22.1176
rfoot -18.6504 8.06527
rtoes 22.4124
lfemur -10.189 1.73307 -4.12448
ltibia 49.1638
lfoot -3.692 1.52825
ltoes -34.4195
299
root 1.09168 17.7651 0.64193 179.043 21.4051 183.451
lowerback 9.0318 -1.3553 1.13071
upperback 0.427811 -1.51029 1.96893
thorax -4.59813 -0.715611 1.60226
lowerneck -11.6076 4.34815 3.8444
upperneck 20.233 6.04242 -1.02774
head 8.34492 3.2597 -0.30716
rclavicle -2.21024e-014 7.95139e-015
rhumerus -45.2958 -32.6282 -55.3851
rradius 25.1637
rwrist 3.92973
rhand -7.80157 -38.192
rfingers 7.12502
rthumb 18.0998 -67.3699
lclavicle -2.21024e-014 7.95139e-015
lhumerus -33.3932 20.1414 80.8392
lradius 38.5187
lwrist -0.291985
lhand -9.87697 -11.7762
lfingers 7.12502
lthumb 16.1021 17.5748
rfemur -0.886662 7.38309 24.8459
rtibia 22.1186
rfoot -18.6453 8.90024
rtoes 23.0037
lfemur -11.2319 1.19854 -4.29179
ltibia 51.0868
lfoot -4.90043 1.52245
ltoes -34.2853
300
root 1.08943 17.7687 0.595153 179.08 22.4771 183.666
lowerback 9.06272 -1.42232 1.45953
upperback 0.426063 -1.55565 2.05472
thorax -4.62331 -0.741876 1.51344
lowerneck -11.5944 4.09267 3.80746
upperneck 20.7653 5.71933 -0.911662
head 8.50893 3.13164 -0.289536
rclavicle -4.14218e-014 3.22031e-014
rhumerus -45.5278 -32.6069 -54.8066
rradius 25.4033
rwrist 3.28958
rhand -7.9599 -38.6192
rfingers 7.12502
rthumb 17.9474 -67.8111
lclavicle -4.14218e-014 3.22031e-014
lhumerus -33.7461 19.7031 81.294
lradius 39.4465
lwrist 0.0372425
lhand -10.0389 -11.8742
lfingers 7.12502
lthumb 15.9462 17.4894
rfemur -0.65528 7.72181 24.9939
rtibia 22.0689
rfoot -18.5824 9.8195
rtoes 24.1292
lfemur -12.1496 0.642394 -4.31831
ltibia 52.4828
lfoot -6.22581 1.48126
ltoes -34.0709
301
root 1.08221 17.7747 0.543206 179.157 23.6124 183.836
lowerback 9.05282 -1.4999 1.72034
upperback 0.396306 -1.62302 2.1533
thorax -4.65272 -0.778097 1.47859
lowerneck -11.6229 3.70326 3.59587
upperneck 21.445 5.21984 -0.639699
head 8.71832 2.92809 -0.207585
rclavicle 6.99722e-014 -1.37161e-014
rhumerus -45.7049 -32.8954 -54.0239
rradius 25.3795
rwrist 3.13042
rhand -7.96551 -38.5611
rfingers 7.12502
rthumb 17.942 -67.7534
lclavicle 6.99722e-014 -1.37161e-014
lhumerus -34.0859 19.3279 81.7346
lradius 40.1633
lwrist 0.344451
lhand -9.53871 -13.3407
lfingers 7.12502
lthumb 16.4278 15.9837
rfemur -0.427428 8.06352 25.0355
rtibia 21.9342
rfoot -18.5262 10.8028
rtoes 25.1048
lfemur -12.9811 0.0259956 -4.41971
ltibia 53.3591
lfoot -7.34542 1.26923
ltoes -34.1403
302
root 1.07211 17.783 0.491082 179.247 24.7819 183.924
lowerback 9.04405 -1.56235 1.828
upperback 0.366391 -1.68585 2.26615
thorax -4.67831 -0.808996 1.54417
lowerneck -11.6354 3.18404 3.02645
upperneck 22.0529 4.51634 0.0115721
head 8.8817 2.63913 0.0371705
rclavicle -2.39287e-014 -3.57812e-015
rhumerus -45.8303 -33.5224 -53.0783
rradius 25.2088
rwrist 3.26923
rhand -7.98716 -38.2577
rfingers 7.12502
rthumb 17.9212 -67.452
lclavicle -2.39287e-014 -3.57812e-015
lhumerus -34.2835 19.0126 82.2224
lradius 40.5997
lwrist 0.587689
lhand -9.29137 -14.1117
lfingers 7.12502
lthumb 16.6659 15.1928
rfemur -0.256725 8.40265 24.942
rtibia 21.7621
rfoot -18.4612 11.863
rtoes 25.7105
lfemur -13.7157 -0.66289 -4.58342
ltibia 53.7288
lfoot -8.55658 0.992529
ltoes -34.3005
303
root 1.05852 17.7916 0.436525 179.356 26.0037 183.973
lowerback 9.05171 -1.61538 1.86771
upperback 0.311288 -1.74395 2.36853
thorax -4.73767 -0.836941 1.63765
lowerneck -11.5937 2.54762 2.21019
upperneck 22.66 3.63569 0.939665
head 9.03274 2.27955 0.398502
rclavicle 8.78007e-014 -1.59028e-014
rhumerus -45.8649 -33.9158 -52.4138
rradius 25.1544
rwrist 3.02845
rhand -8.12919 -38.2253
rfingers 7.12502
rthumb 17.7845 -67.432
lclavicle 8.78007e-014 -1.59028e-014
lhumerus -34.5446 18.7385 82.6457
lradius 40.9252
lwrist 0.633087
lhand -9.00663 -14.1984
lfingers 7.12502
lthumb 16.9401 15.0828
rfemur -0.124754 8.77826 24.7668
rtibia 21.5498
rfoot -18.278 13.0532
rtoes 26.5345
lfemur -14.293 -1.56609 -4.78388
ltibia 53.5595
lfoot -9.90979 0.759507
ltoes -34.8983
304
root 1.04178 17.8011 0.378098 179.546 27.3238 184.105
lowerback 9.03676 -1.6674 1.96724
upperback 0.229324 -1.79474 2.47171
thorax -4.81433 -0.862783 1.69752
lowerneck -11.5264 1.77284 1.35987
upperneck 23.3961 2.5707 1.88177
head 9.24179 1.84065 0.756281
rclavicle -6.62201e-015 7.15625e-015
rhumerus -45.8037 -34.1238 -52.0309
rradius 25.1973
rwrist 2.52151
rhand -8.17932 -38.1897
rfingers 7.12502
rthumb 17.7363 -67.4009
lclavicle -6.62201e-015 7.15625e-015
lhumerus -34.9131 18.6388 82.9106
lradius 41.2155
lwrist 0.380094
lhand -8.46939 -14.3496
lfingers 7.12502
lthumb 17.4571 14.8865
rfemur -0.0470486 9.24948 24.6613
rtibia 21.3518
rfoot -18.1245 14.3086
rtoes 27.2375
lfemur -14.7247 -2.80112 -4.87054
ltibia 52.7023
lfoot -11.2583 0.552909
ltoes -35.8613
305
root 1.02231 17.8095 0.319015 179.839 28.692 184.346
lowerback 9.02582 -1.74389 2.09035
upperback 0.131145 -1.87076 2.61857
thorax -4.90933 -0.9004 1.79376
lowerneck -11.46 0.911243 0.619061
upperneck 24.2335 1.40421 2.62337
head 9.5143 1.34878 1.02155
rclavicle 6.77731e-014 9.54166e-015
rhumerus -45.5742 -34.2605 -51.8444
rradius 25.2096
rwrist 2.08808
rhand -7.95585 -37.9723
rfingers 7.12502
rthumb 17.9513 -67.1639
lclavicle 6.77731e-014 9.54166e-015
lhumerus -35.303 18.8314 83.0782
lradius 41.4112
lwrist 0.0169372
lhand -8.02083 -14.4321
lfingers 7.12502
lthumb 17.8888 14.7651
rfemur -0.0400113 9.71394 24.644
rtibia 21.1716
rfoot -18.0334 15.569
rtoes 27.6315
lfemur -15.0191 -4.38889 -4.75503
ltibia 51.1135
lfoot -12.6175 0.0776254
ltoes -35.9707
306
root 1.00027 17.816 0.260238 180.115 30.0139 184.513
lowerback 9.07304 -1.84407 2.06414
upperback 0.0384872 -1.99176 2.76801
thorax -5.02517 -0.956747 1.98478
lowerneck -11.6275 0.0236259 0.109178
upperneck 25.2543 0.199699 3.10424
head 9.92295 0.838764 1.1595
rclavicle 4.70623e-014 3.1408e-014
rhumerus -45.1714 -34.3279 -51.88
rradius 25.1769
rwrist 1.79284
rhand -7.74486 -37.8501
rfingers 7.12502
rthumb 18.1543 -67.0229
lclavicle 4.70623e-014 3.1408e-014
lhumerus -35.6711 19.0988 83.2437
lradius 41.5322
lwrist -0.210426
lhand -7.59043 -14.3829
lfingers 7.12502
lthumb 18.3029 14.776
rfemur -0.0400462 10.1302 24.5338
rtibia 20.9546
rfoot -17.8664 16.7066
rtoes 28.1086
lfemur -15.1343 -6.34094 -4.64336
ltibia 48.9622
lfoot -13.844 -0.724631
ltoes -35.1417
307
root 0.973448 17.8226 0.199155 180.426 31.411 184.574
lowerback 9.07441 -1.92229 1.94075
upperback -0.0282968 -2.10247 2.86056
thorax -5.08598 -1.00748 2.16753
lowerneck -11.9149 -0.916329 -0.41296
upperneck 26.2931 -1.09295 3.57051
head 10.3858 0.289835 1.28128
rclavicle 1.37286e-014 5.56597e-015
rhumerus -44.6195 -34.2942 -52.2893
rradius 25.2692
rwrist 1.32697
rhand -7.9154 -38.0218
rfingers 7.12502
rthumb 17.9902 -67.2098
lclavicle 1.37286e-014 5.56597e-015
lhumerus -36.0195 19.4156 83.3288
lradius 41.6265
lwrist -0.582474
lhand -7.21794 -14.3275
lfingers 7.12502
lthumb 18.6612 14.7974
rfemur -0.175139 10.5996 24.2759
rtibia 20.7981
rfoot -17.6628 17.8127
rtoes 28.7336
lfemur -15.1744 -8.62845 -4.56922
ltibia 46.3639
lfoot -14.9122 -1.73645
ltoes -34.8279
308
root 0.940073 17.8272 0.134809 180.839 33.0678 184.619
lowerback 8.99748 -1.95749 1.78711
upperback -0.0633494 -2.16312 2.95651
thorax -5.06858 -1.03284 2.36005
lowerneck -12.0012 -1.87581 -1.33828
upperneck 27.0618 -2.43712 4.39858
head 10.7449 -0.286117 1.58644
rclavicle -1.19122e-013 2.38542e-014
rhumerus -43.8062 -34.0534 -53.0674
rradius 25.4391
rwrist 0.823852
rhand -8.19689 -38.2211
rfingers 7.12502
rthumb 17.7194 -67.4337
lclavicle -1.19122e-013 2.38542e-014
lhumerus -36.387 20.0098 83.3138
lradius 41.7101
lwrist -1.17341
lhand -6.86648 -14.5071
lfingers 7.12502
lthumb 18.9992 14.5849
rfemur -0.519895 11.185 23.9232
rtibia 20.7346
rfoot -17.4169 19.0692
rtoes 29.4626
lfemur -15.165 -11.2519 -4.40156
ltibia 43.3361
lfoot -16.1146 -3.21675
ltoes -34.2254
309
root 0.905279 17.8287 0.0674487 181.178 34.8695 184.627
lowerback 9.02099 -1.98341 1.5142
upperback -0.0564366 -2.22057 3.05825
thorax -5.05837 -1.0533 2.6281
lowerneck -11.9563 -2.82483 -2.36392
upperneck 27.6746 -3.79261 5.344
head 11.059 -0.867613 1.94723
rclavicle -2.16178e-015 1.19271e-014
rhumerus -42.8465 -33.7376 -54.0021
rradius 25.5346
rwrist 0.725393
rhand -8.21962 -38.1317
rfingers 7.12502
rthumb 17.6975 -67.3463
lclavicle -2.16178e-015 1.19271e-014
lhumerus -36.8094 20.7626 83.2085
lradius 41.8233
lwrist -1.51193
lhand -6.31186 -14.6876
lfingers 7.12502
lthumb 19.5325 14.3513
rfemur -0.825239 11.8964 23.5434
rtibia 20.6897
rfoot -17.2485 20.1549
rtoes 29.8015
lfemur -14.903 -14.1826 -4.18635
ltibia 39.9415
lfoot -17.6007 -5.2856
ltoes -32.9885
